# Hierarchical Translation and Rotation (.htr) file
# Generated by EVaRT
[Header]
FileType htr
DataType HTRS
FileVersion 1
NumSegments 23
NumFrames 4
DataFrameRate 120
EulerRotationOrder ZYX
CalibrationUnits mm
RotationUnits Degrees
GlobalAxisofGravity Y
BoneLengthAxis Y
ScaleFactor 1
[SegmentNames&Hierarchy]
#CHILD            PARENT
DaveRoot          GLOBAL
Spine1            DaveRoot
Spine2            Spine1
Spine3            Spine2
Spine4            Spine3
Neck              Spine4
Head              Neck
LClavicle         Spine4
LUpperArm         LClavicle
LLowerArm         LUpperArm
LHand             LLowerArm
RClavicle         Spine4
RUpperArm         RClavicle
RLowerArm         RUpperArm
RHand             RLowerArm
RUpperLeg         DaveRoot
RLowerLeg         RUpperLeg
RFoot             RLowerLeg
RToes             RFoot
LUpperLeg         DaveRoot
LLowerLeg         LUpperLeg
LFoot             LLowerLeg
LToes             LFoot
[BasePosition]
#SegmentName      Tx   Ty   Tz   Rx   Ry   Rz   BoneLength
DaveRoot          30.502683	1014.050144	-392.030244	16.346492	-1.112010	-1.464339	100.000000
Spine1            0.000000	100.000000	0.000000	-16.708095	0.289044	-0.213389	100.000000
Spine2            0.000000	100.000000	0.000000	4.757952	0.249599	-0.116624	100.000000
Spine3            0.000000	100.000000	0.000000	11.084253	0.260929	-0.088411	100.000000
Spine4            0.000000	100.000000	0.000000	12.228282	1.332274	1.443083	100.000000
Neck              0.000000	100.000000	0.000000	10.147668	18.171820	1.381874	80.000000
Head              0.000000	80.000000	0.000000	-46.518491	-1.401195	-5.185409	200.000000
LClavicle         0.000000	100.000000	0.000000	-3.689620	-1.992124	-101.831237	200.000000
LUpperArm         0.000000	200.000000	0.000000	-0.284445	-3.207106	1.762499	300.000000
LLowerArm         0.000000	300.000000	0.000000	9.834184	2.175812	1.895763	200.000000
LHand             0.000000	200.000000	0.000000	-2.090742	-1.768569	8.793625	120.000000
RClavicle         0.000000	100.000000	0.000000	-0.558465	-3.870894	107.984856	200.000000
RUpperArm         0.000000	200.000000	0.000000	6.860362	-6.098052	-15.811317	300.000000
RLowerArm         0.000000	300.000000	0.000000	5.698581	-3.682026	-7.348670	200.000000
RHand             0.000000	200.000000	0.000000	-4.626921	6.468423	-3.971303	120.000000
RUpperLeg         -115.911102	-10.000000	31.058285	22.974686	25.481186	-170.503396	530.000000
RLowerLeg         0.000000	530.000000	0.000000	-7.725558	0.479387	-2.520024	460.000000
RFoot             0.000000	460.000000	0.000000	81.786251	-5.006629	-0.462861	130.000000
RToes             0.000000	130.000000	0.000000	20.181248	0.005479	-0.002881	100.000000
LUpperLeg         115.911102	-10.000000	31.058285	21.582405	10.065134	-177.228489	530.000000
LLowerLeg         0.000000	530.000000	0.000000	-4.243927	-3.275937	3.046484	460.000000
LFoot             0.000000	460.000000	0.000000	77.706358	-14.203819	16.055021	130.000000
LToes             0.000000	130.000000	0.000000	27.168776	-0.000000	-0.000086	100.000000
#Beginning of Data.
[DaveRoot]
#Fr	Tx	Ty	Tz	Rx	Ry	Rz	SF
823	-386.213310	-36.233710	433.151066	-85.777833	65.888203	-89.073007	1.000000	
824	-380.125800	-36.440875	432.908647	-85.835237	65.656301	-89.040180	1.000000	
825	-374.221001	-37.554237	432.852249	-85.936286	65.314654	-89.156607	1.000000	
826	-367.945853	-37.782111	432.345453	-86.072547	65.128085	-89.142752	1.000000	
[Spine1]
#Fr	Tx	Ty	Tz	Rx	Ry	Rz	SF
823	0.000000	0.000000	0.000000	0.908119	0.920238	1.486350	1.000000	
824	0.000000	0.000000	0.000000	1.122110	0.887275	1.583666	1.000000	
825	0.000000	0.000000	0.000000	0.770586	0.991958	1.733007	1.000000	
826	0.000000	0.000000	0.000000	1.151022	0.896773	1.817880	1.000000	
[Spine2]
#Fr	Tx	Ty	Tz	Rx	Ry	Rz	SF
823	0.000000	0.000000	0.000000	0.908119	0.920238	1.486350	1.000000	
824	0.000000	0.000000	0.000000	1.122110	0.887275	1.583666	1.000000	
825	0.000000	0.000000	0.000000	0.770586	0.991958	1.733007	1.000000	
826	0.000000	0.000000	0.000000	1.151022	0.896773	1.817880	1.000000	
[Spine3]
#Fr	Tx	Ty	Tz	Rx	Ry	Rz	SF
823	0.000000	0.000000	0.000000	0.908119	0.920238	1.486350	1.000000	
824	0.000000	0.000000	0.000000	1.122110	0.887275	1.583666	1.000000	
825	0.000000	0.000000	0.000000	0.770586	0.991958	1.733007	1.000000	
826	0.000000	0.000000	0.000000	1.151022	0.896773	1.817880	1.000000	
[Spine4]
#Fr	Tx	Ty	Tz	Rx	Ry	Rz	SF
823	0.000000	0.000000	0.000000	0.908119	0.920238	1.486350	1.000000	
824	0.000000	0.000000	0.000000	1.122110	0.887275	1.583666	1.000000	
825	0.000000	0.000000	0.000000	0.770586	0.991958	1.733007	1.000000	
826	0.000000	0.000000	0.000000	1.151022	0.896773	1.817880	1.000000	
[Neck]
#Fr	Tx	Ty	Tz	Rx	Ry	Rz	SF
823	0.000000	0.000000	0.000000	2.382013	-0.395851	-1.464481	1.000000	
824	0.000000	0.000000	0.000000	1.409786	-0.392518	-1.945978	1.000000	
825	0.000000	0.000000	0.000000	2.805131	-0.538045	-1.463013	1.000000	
826	0.000000	0.000000	0.000000	1.204314	-0.458326	-2.277858	1.000000	
[Head]
#Fr	Tx	Ty	Tz	Rx	Ry	Rz	SF
823	0.000000	0.000000	0.000000	2.382013	-0.395851	-1.464481	1.000000	
824	0.000000	0.000000	0.000000	1.409786	-0.392518	-1.945978	1.000000	
825	0.000000	0.000000	0.000000	2.805131	-0.538045	-1.463013	1.000000	
826	0.000000	0.000000	0.000000	1.204314	-0.458326	-2.277858	1.000000	
[LClavicle]
#Fr	Tx	Ty	Tz	Rx	Ry	Rz	SF
823	0.000000	0.000000	0.000000	14.652828	2.140594	-10.759516	1.000000	
824	0.000000	0.000000	0.000000	11.655336	1.899334	-11.757487	1.000000	
825	0.000000	0.000000	0.000000	15.371946	2.300865	-10.937778	1.000000	
826	0.000000	0.000000	0.000000	10.358800	1.781763	-12.283079	1.000000	
[LUpperArm]
#Fr	Tx	Ty	Tz	Rx	Ry	Rz	SF
823	0.000000	0.000000	0.000000	19.778364	14.846559	-41.631876	1.000000	
824	0.000000	0.000000	0.000000	24.560324	17.509676	-38.967646	1.000000	
825	0.000000	0.000000	0.000000	18.363847	14.723145	-42.125819	1.000000	
826	0.000000	0.000000	0.000000	26.414602	18.543504	-38.280524	1.000000	
[LLowerArm]
#Fr	Tx	Ty	Tz	Rx	Ry	Rz	SF
823	0.000000	0.000000	0.000000	29.051640	0.000000	0.000000	1.000000	
824	0.000000	0.000000	0.000000	26.307901	0.000000	0.000000	1.000000	
825	0.000000	0.000000	0.000000	30.335825	0.000000	0.000000	1.000000	
826	0.000000	0.000000	0.000000	25.322091	-0.000000	0.000000	1.000000	
[LHand]
#Fr	Tx	Ty	Tz	Rx	Ry	Rz	SF
823	0.000000	0.000000	0.000000	8.971097	-0.000000	-0.000000	1.000000	
824	0.000000	0.000000	0.000000	10.189671	-0.000000	-0.000000	1.000000	
825	0.000000	0.000000	0.000000	8.073037	0.000000	-0.000000	1.000000	
826	0.000000	0.000000	0.000000	10.513434	-0.000000	-0.000000	1.000000	
[RClavicle]
#Fr	Tx	Ty	Tz	Rx	Ry	Rz	SF
823	0.000000	0.000000	0.000000	7.417782	0.418128	-3.394277	1.000000	
824	0.000000	0.000000	0.000000	6.188303	0.318885	-3.124449	1.000000	
825	0.000000	0.000000	0.000000	7.539542	0.495883	-3.927310	1.000000	
826	0.000000	0.000000	0.000000	5.584137	0.313043	-3.384507	1.000000	
[RUpperArm]
#Fr	Tx	Ty	Tz	Rx	Ry	Rz	SF
823	0.000000	0.000000	0.000000	30.199847	24.560433	15.976991	1.000000	
824	0.000000	0.000000	0.000000	32.308423	24.564900	15.087926	1.000000	
825	0.000000	0.000000	0.000000	29.527520	24.249273	16.281667	1.000000	
826	0.000000	0.000000	0.000000	33.042604	24.334558	14.751483	1.000000	
[RLowerArm]
#Fr	Tx	Ty	Tz	Rx	Ry	Rz	SF
823	0.000000	0.000000	0.000000	35.323066	0.000000	0.000000	1.000000	
824	0.000000	0.000000	0.000000	33.705246	0.000000	0.000000	1.000000	
825	0.000000	0.000000	0.000000	35.768017	0.000000	0.000000	1.000000	
826	0.000000	0.000000	0.000000	33.185151	0.000000	0.000000	1.000000	
[RHand]
#Fr	Tx	Ty	Tz	Rx	Ry	Rz	SF
823	0.000000	0.000000	0.000000	20.725081	39.480064	8.859575	1.000000	
824	0.000000	0.000000	0.000000	22.578779	39.828337	9.733891	1.000000	
825	0.000000	0.000000	0.000000	20.366160	39.503060	8.712756	1.000000	
826	0.000000	0.000000	0.000000	23.134493	39.915313	9.907858	1.000000	
[RUpperLeg]
#Fr	Tx	Ty	Tz	Rx	Ry	Rz	SF
823	0.000000	0.000000	0.000000	-6.715973	-5.041305	5.877149	1.000000	
824	0.000000	0.000000	0.000000	-7.217105	-5.089725	5.953789	1.000000	
825	0.000000	0.000000	0.000000	-7.594697	-5.086379	6.171448	1.000000	
826	0.000000	0.000000	0.000000	-8.156633	-5.076275	6.146837	1.000000	
[RLowerLeg]
#Fr	Tx	Ty	Tz	Rx	Ry	Rz	SF
823	0.000000	0.000000	0.000000	-18.491299	0.000000	0.000000	1.000000	
824	0.000000	0.000000	0.000000	-18.479476	-0.000000	0.000000	1.000000	
825	0.000000	0.000000	0.000000	-18.639252	-0.000000	0.000000	1.000000	
826	0.000000	0.000000	0.000000	-18.576345	-0.000000	0.000000	1.000000	
[RFoot]
#Fr	Tx	Ty	Tz	Rx	Ry	Rz	SF
823	0.000000	0.000000	0.000000	12.451545	1.457348	-8.305387	1.000000	
824	0.000000	0.000000	0.000000	12.648256	1.446225	-8.461928	1.000000	
825	0.000000	0.000000	0.000000	13.031421	1.417950	-8.684604	1.000000	
826	0.000000	0.000000	0.000000	13.209221	1.292072	-8.823786	1.000000	
[RToes]
#Fr	Tx	Ty	Tz	Rx	Ry	Rz	SF
823	0.000000	0.000000	0.000000	-7.081275	-0.000000	0.000000	1.000000	
824	0.000000	0.000000	0.000000	-6.884236	-0.000000	0.000000	1.000000	
825	0.000000	0.000000	0.000000	-6.670937	0.000000	0.000000	1.000000	
826	0.000000	0.000000	0.000000	-6.358170	-0.000000	0.000000	1.000000	
[LUpperLeg]
#Fr	Tx	Ty	Tz	Rx	Ry	Rz	SF
823	0.000000	0.000000	0.000000	11.750573	-4.170357	9.577802	1.000000	
824	0.000000	0.000000	0.000000	10.600995	-2.284832	10.177985	1.000000	
825	0.000000	0.000000	0.000000	9.831873	-0.489350	10.936333	1.000000	
826	0.000000	0.000000	0.000000	8.734868	1.469252	11.492276	1.000000	
[LLowerLeg]
#Fr	Tx	Ty	Tz	Rx	Ry	Rz	SF
823	0.000000	0.000000	0.000000	-14.811000	-0.000000	-0.000000	1.000000	
824	0.000000	0.000000	0.000000	-10.942247	0.000000	-0.000000	1.000000	
825	0.000000	0.000000	0.000000	-7.697003	-0.000000	-0.000000	1.000000	
826	0.000000	0.000000	0.000000	-4.238834	-0.000000	-0.000000	1.000000	
[LFoot]
#Fr	Tx	Ty	Tz	Rx	Ry	Rz	SF
823	0.000000	0.000000	0.000000	-10.679789	-5.564970	-0.619452	1.000000	
824	0.000000	0.000000	0.000000	-11.656086	-7.378271	0.768352	1.000000	
825	0.000000	0.000000	0.000000	-12.118069	-8.287459	2.076508	1.000000	
826	0.000000	0.000000	0.000000	-12.450948	-8.987527	3.681786	1.000000	
[LToes]
#Fr	Tx	Ty	Tz	Rx	Ry	Rz	SF
823	0.000000	0.000000	0.000000	-1.491018	0.000000	-0.000000	1.000000	
824	0.000000	0.000000	0.000000	-3.156772	0.000000	-0.000000	1.000000	
825	0.000000	0.000000	0.000000	-4.278986	0.000000	-0.000000	1.000000	
826	0.000000	0.000000	0.000000	-5.323068	0.000000	-0.000000	1.000000	
